<svg width="1153" height="640" viewBox="0 0 1153 640" fill="none" xmlns="http://www.w3.org/2000/svg">
<path d="M905 270C903.971 274 902.171 276.25 903.971 280C894.172 280 869 277.594 869 270C878.257 271.75 878.771 272.25 886.743 271.75C896.514 271.137 897.543 270.75 905 270Z" fill="#8A8A8A"/>
<path d="M822.166 233.535L822.166 233.535L822.171 233.526L824.388 228.844L825.364 227.134L826.09 225.924L826.816 224.956L827.557 223.967L827.566 223.955L827.573 223.944L828.554 222.472L829.288 221.493L830.008 220.533L830.937 219.604L832.353 218.659L833.314 218.178L834.271 217.7L835.71 217.22L837.402 216.736L838.817 216.5H840.091L826.141 238.5H819.776L820.687 236.495L822.166 233.535Z" fill="#D9D9D9" stroke="black"/>
<path d="M895.364 209.483L895.37 209.483L901.933 208.987L901.937 208.987L913.041 208.243L913.047 208.243L926.668 207.5H935.048L935.25 209.28L935.497 212.439L934.779 217.374L928.409 221.704L921.108 225.906L910.775 231.35L900.259 236.02L891.005 236.757L881.672 237.252L872.087 237.5H863.599L864.739 231.233L868.477 224.872L870.731 221.43L873.483 217.99L875.989 215.284L878.67 212.651L887.591 209.975L895.364 209.483Z" fill="#D9D9D9" stroke="black"/>
<path d="M446.403 268.034H661.127L768.742 264H828.754L882.435 272.824L903.451 279.379L917.121 299.146L922.947 319.359L927 351.646L912.308 379.47H587.695H425.386L333.47 383H291.184L257 376.445L267.635 369.386L262.317 332.072L300.806 315.18L304.604 313.919L322.329 307.869L361.83 279.379L403.61 272.824L446.403 268.034Z" fill="black"/>
<path d="M833.946 257.269C954.342 290.358 759.309 275.819 660.687 275.819C562.066 275.819 472 282.873 472 265.291C565.585 215.907 567.608 206.381 656.893 214.654C702.927 218.919 723.92 222.744 833.946 257.269Z" fill="#1E1E1E"/>
<circle cx="403" cy="350" r="53" fill="#212121"/>
<circle cx="775" cy="350" r="57" fill="#212121"/>
<circle cx="403" cy="350" r="43" fill="#F7404E"/>
<ellipse cx="775" cy="349.5" rx="46" ry="45.5" fill="#F7404E"/>
<path d="M362 279.333C352.421 290.384 341.331 296.664 326.963 305.958C321.274 309.637 312.847 313.744 301 315C306.041 302.19 310.074 298.171 323.686 289.128C341.835 280.086 353.43 275.565 362 279.333Z" fill="white"/>
<path d="M828 223.195L870 221L863.854 231H858.988L850.28 230.268L839.78 229.537L835.171 229.049L831.585 228.317L830.305 228.073L829.024 227.098L828.256 225.39L828 223.195Z" fill="#D9D9D9"/>
<path d="M859.347 212.282L852.38 221.728L847.452 223.789L845.427 227.585L839.547 239.613L831.986 256.942L819.361 252.639L828.472 235.177L833.786 225.054L838.595 217.462L843.15 214.678L849.983 213.16L859.347 212.282Z" fill="black"/>
<path d="M859.347 212.282L852.38 221.728L847.452 223.789L845.427 227.585L839.547 239.613L831.986 256.942L819.361 252.639L828.472 235.177L833.786 225.054L838.595 217.462L843.15 214.678L849.983 213.16L859.347 212.282Z" fill="black"/>
<path d="M878.58 208.861L869.644 220.653L863.547 222.215L859.452 229.642L855.085 240.901L847.123 261.117L831.921 256.78L853.937 215.876L859.537 212.018L868.173 209.933L878.58 208.861Z" fill="black"/>
<path d="M878.58 208.861L869.644 220.653L863.547 222.215L859.452 229.642L855.085 240.901L847.123 261.117L831.921 256.78L853.937 215.876L859.537 212.018L868.173 209.933L878.58 208.861Z" fill="black"/>
<path d="M856.028 231.037L864.127 231.037L859.824 239.136L861.09 247.74L864.127 264.696L867.164 266.974L869.188 269.758L863.874 266.974L860.837 265.708L857.547 264.443L852.232 262.672L849.195 261.659L846.665 260.9L847.677 259.635L850.967 260.141L854.257 261.153L855.269 261.659L855.016 254.826L854.763 251.03L854.763 247.487L854.763 241.757L855.522 239.733L856.028 231.037Z" fill="black"/>
</svg>
