<svg width="68" height="89" viewBox="0 0 68 89" fill="none" xmlns="http://www.w3.org/2000/svg">
<path d="M33.4146 0.655273C30.9722 0.667078 28.5312 0.778316 26.0974 0.988724C20.9677 1.42284 15.8785 2.26202 10.8754 3.49876C7.24921 4.43593 3.68789 5.61844 0.215 7.03847L0 7.11908C0 7.11908 0.422834 33.6595 0.7525 46.807C0.837431 50.6778 1.52572 54.51 2.79142 58.159C4.25617 62.3105 6.2078 66.265 8.60358 69.936C11.1101 73.727 14.1422 77.1251 17.6049 80.0238C18.9585 81.1848 20.3854 82.2535 21.8762 83.2228C24.2145 84.6674 26.6557 85.9302 29.1791 87.0006C30.014 87.3597 30.7414 87.7042 31.4007 87.935C32.0901 88.2045 32.7964 88.4261 33.5149 88.5983C34.2335 88.4249 34.9398 88.202 35.6291 87.9314C36.2812 87.7005 37.0158 87.3597 37.8507 86.997C40.3729 85.9263 42.8128 84.6635 45.15 83.2191C46.6432 82.2499 48.0725 81.1813 49.4285 80.0202C52.8898 77.1224 55.9207 73.7255 58.4263 69.936C60.8223 66.2652 62.774 62.3106 64.2384 58.159C65.5053 54.5102 66.1948 50.678 66.2809 46.807C66.607 33.6595 67.0334 7.13374 67.0334 7.13374C66.9669 7.09857 66.8988 7.06677 66.8292 7.03847C63.3551 5.61828 59.7926 4.43577 56.1652 3.49876C51.1619 2.26323 46.0728 1.42527 40.9432 0.992388C38.5094 0.782235 36.0684 0.669777 33.626 0.655273L33.4146 0.655273ZM33.4146 1.97808H33.6188C36.0519 2.0074 38.2342 2.08801 40.6529 2.30787C45.5853 2.72769 50.4783 3.53996 55.2873 4.73729C58.7756 5.64676 62.2005 6.7938 65.5392 8.17074C65.6087 8.19775 65.6769 8.22832 65.7434 8.26234L65.6073 16.5949C65.5857 16.5805 65.563 16.5683 65.5392 16.5583C62.2016 15.1817 58.7779 14.0347 55.2908 13.1249C50.4805 11.9289 45.5864 11.1179 40.6529 10.6991C38.2342 10.4792 36.0627 10.3327 33.6296 10.3034H33.4217C30.9887 10.3363 28.7992 10.4792 26.3805 10.6991C21.4479 11.1217 16.555 11.9364 11.7462 13.1358C8.25779 14.0467 4.83285 15.195 1.49425 16.573C1.46926 16.5828 1.44526 16.5951 1.42258 16.6096L1.28642 8.25135L1.49425 8.17074C4.8317 6.79392 8.25545 5.64688 11.7426 4.73729C16.5538 3.53829 21.4492 2.72479 26.3841 2.3042C28.8028 2.08435 30.9815 2.01106 33.4146 1.97808ZM34.4466 2.76957C33.3691 2.74946 32.2913 2.75923 31.2144 2.79888C30.7808 2.81721 30.1824 3.19829 30.1752 3.64167L30.1502 6.01613C30.143 6.49982 30.7665 6.88091 31.2431 6.8919C32.8986 6.92854 34.3606 6.89923 35.9659 7.00183C36.0842 7.01282 36.1881 7.08611 36.1881 7.20703L36.1773 7.68338C36.1795 7.70575 36.1768 7.72833 36.1695 7.74953C36.1623 7.77073 36.1505 7.79005 36.1351 7.80611C36.1198 7.82218 36.1012 7.83461 36.0806 7.84252C36.06 7.85044 36.038 7.85366 36.0161 7.85194C34.1492 7.85194 32.1962 7.76033 30.3078 7.91424C30.2075 7.92156 30.2111 7.89591 30.2075 7.99851L30.1215 9.4056L30.1143 9.51553C32.3604 9.38286 34.6121 9.38286 36.8582 9.51553C37.1202 9.50738 37.3716 9.40765 37.5705 9.23296C37.7694 9.05827 37.9037 8.81916 37.9511 8.55549L37.9726 6.25798C37.9726 5.78528 37.4064 5.43717 37.0373 5.41519C35.4535 5.31259 33.6511 5.36755 32.0422 5.32358C32.0199 5.32268 31.998 5.31715 31.9778 5.30734C31.9577 5.29753 31.9397 5.28364 31.925 5.26651C31.9102 5.24938 31.899 5.22937 31.8921 5.20768C31.8851 5.186 31.8825 5.1631 31.8845 5.14037L31.9167 4.60904C31.9167 4.50644 31.9848 4.47713 32.0852 4.47347C33.6762 4.41484 36.0519 4.49179 37.6823 4.54309C37.7419 4.5328 37.796 4.50151 37.8352 4.45464C37.8745 4.40777 37.8965 4.34831 37.8973 4.28659V3.12501C37.8973 3.06271 37.7827 2.8795 37.6716 2.87583C36.5971 2.82669 35.522 2.78882 34.4466 2.76957ZM27.7099 3.00408C26.1942 3.0334 22.9047 3.46212 21.0377 3.7003L21.027 10.329V10.4133L22.7112 10.1934C22.7183 10.1926 22.7252 10.1902 22.7314 10.1864C22.7376 10.1826 22.7429 10.1775 22.747 10.1714C22.7551 10.1611 22.7589 10.148 22.7577 10.1348V8.21837L26.1512 7.84461C26.4486 7.78965 26.7962 8.01317 27.0685 8.46388C27.2864 8.84498 27.4254 9.26778 27.477 9.70607L29.1504 9.57782C29.1862 9.57782 29.2579 9.57782 29.2508 9.54118C29.2011 8.61738 28.8075 7.74807 28.1507 7.11176C28.3694 7.02124 28.555 6.8631 28.6816 6.65944C28.8082 6.45578 28.8693 6.21678 28.8566 5.97582C28.8742 5.28592 28.8479 4.59557 28.7778 3.90916C28.7205 3.65858 28.5843 3.43421 28.39 3.27065C28.1957 3.10709 27.9542 3.01342 27.7028 3.00408H27.7099ZM40.5741 3.07371C40.2255 3.06009 39.8838 3.17568 39.6118 3.39921C39.3399 3.62273 39.1561 3.93915 39.0942 4.29025L39.0583 8.66908C39.0697 8.91716 39.1598 9.1547 39.315 9.34576C39.4702 9.53682 39.682 9.67102 39.9183 9.72806C42.1042 9.93692 44.2542 10.1385 46.6908 10.5159C46.7303 10.5159 46.8055 10.4902 46.8055 10.4536V8.92924C46.8055 8.89627 46.7338 8.82664 46.7088 8.81931C45.0819 8.61045 42.9355 8.31731 41.0148 8.11211C40.9578 8.09797 40.9067 8.06536 40.8693 8.01914C40.8318 7.97291 40.81 7.91556 40.807 7.85561V4.8802C40.807 4.75562 40.9862 4.68966 41.108 4.69699C43.0036 4.85822 44.892 5.20999 46.784 5.41885C46.8342 5.42618 46.913 5.3932 46.9166 5.3419L46.9524 3.94214C46.95 3.91328 46.9386 3.88596 46.9199 3.8642C46.9012 3.84244 46.8762 3.82738 46.8485 3.82122C44.7644 3.52032 42.67 3.27108 40.5741 3.07371ZM47.6691 3.94214C47.6261 3.94214 47.5903 3.99344 47.5903 4.03375C47.5688 5.03777 47.429 9.37262 47.4003 10.5269V10.6258C47.9557 10.7247 48.5685 10.8017 49.0236 10.897C49.0737 10.9043 49.149 10.8677 49.149 10.8164C49.1418 10.0578 49.149 9.17475 49.1347 8.48587C49.1347 8.43823 49.1562 8.43456 49.2063 8.44189C50.5272 8.68649 51.8437 8.95525 53.1552 9.24804C53.1838 9.24804 53.3415 9.27369 53.3415 9.35797C53.3308 10.1531 53.3164 10.8237 53.2949 11.6188C53.2938 11.6506 53.3026 11.6819 53.32 11.7082C53.3374 11.7346 53.3625 11.7546 53.3917 11.7654C53.9113 11.8863 54.4057 12.0109 54.8967 12.1318C55.0292 12.1611 55.0508 12.1355 55.0543 12.0879C55.1332 10.4353 55.1618 7.78598 55.1833 5.55077C55.1833 5.52145 55.1726 5.47748 55.1475 5.47015C54.5993 5.3419 54.0832 5.20632 53.5243 5.0854C53.4741 5.07441 53.4454 5.15869 53.4418 5.21365C53.3881 6.03079 53.4096 6.7893 53.3487 7.60277C53.3487 7.63208 53.3487 7.64674 53.3164 7.63941C51.9906 7.36093 50.5752 7.06046 49.2601 6.80762C49.2242 6.80029 49.2386 6.73433 49.2422 6.69403L49.2529 4.30124C49.2512 4.27506 49.2411 4.25018 49.2243 4.23035C49.2075 4.21052 49.1848 4.19682 49.1597 4.19131C48.6624 4.10362 48.1679 4.02056 47.6691 3.94214ZM18.9451 4.02642C18.9009 4.02366 18.8567 4.02366 18.8125 4.02642C16.8668 4.34155 14.9103 4.76294 12.9358 5.199C12.6192 5.2928 12.334 5.47412 12.1117 5.72299C11.9039 5.91913 11.7739 6.18644 11.7462 6.47417L11.7605 10.5708C11.7756 10.9303 11.9095 11.2739 12.1403 11.5455C12.219 11.6704 12.3273 11.7728 12.4551 11.8433C12.5829 11.9138 12.7261 11.95 12.8713 11.9486C14.8133 11.511 16.7643 11.1164 18.7229 10.7651C19.0991 10.6742 19.4362 10.4607 19.6833 10.1568C19.8945 9.92741 20.019 9.62865 20.0344 9.31399L20.0273 5.05242C20.0146 4.91009 19.973 4.77202 19.9051 4.64708C19.8372 4.52214 19.7446 4.41308 19.6331 4.32689C19.4457 4.15002 19.2034 4.04624 18.9487 4.03375L18.9451 4.02642ZM26.6743 4.74829C26.7449 4.74419 26.8142 4.76827 26.8677 4.81544C26.9211 4.86262 26.9546 4.92919 26.961 5.00112L26.9718 5.69367C26.9693 5.83859 26.918 5.97821 26.8267 6.089C26.7353 6.1998 26.6094 6.275 26.4701 6.30195L22.6646 6.68303L22.6323 6.65372V5.16235L22.6646 5.14769L26.6457 4.75195C26.6552 4.75144 26.6648 4.75144 26.6743 4.75195V4.74829ZM17.6443 5.81093C17.7426 5.81393 17.8386 5.84161 17.9238 5.89155C17.9871 5.93268 18.0384 5.99041 18.0725 6.05873C18.1065 6.12704 18.122 6.20344 18.1173 6.27996L18.0851 8.85962C18.0884 8.93348 18.0741 9.00706 18.0435 9.07406C18.0129 9.14106 17.967 9.1995 17.9095 9.24437C17.7806 9.33392 17.6336 9.39277 17.4795 9.41659C16.2905 9.65877 15.0996 9.89085 13.9069 10.1128C13.8531 10.1266 13.797 10.1282 13.7425 10.1174C13.688 10.1067 13.6365 10.0838 13.5916 10.0505C13.5504 10 13.5197 9.94151 13.5012 9.87854C13.4827 9.81557 13.4769 9.74942 13.4841 9.68409V7.02381C13.4861 6.89104 13.5373 6.764 13.6274 6.66838C13.7477 6.55528 13.8967 6.47909 14.0574 6.44852C15.0966 6.25065 16.4583 5.97582 17.5261 5.81826C17.5652 5.81182 17.6048 5.80937 17.6443 5.81093ZM56.3802 5.81093L56.3766 5.8146C56.3479 5.8146 56.3479 5.85857 56.3479 5.88422C56.2977 8.10478 56.2404 10.1604 56.2225 12.381C56.2225 12.4286 56.244 12.4909 56.287 12.5019C58.9056 13.2219 61.4866 14.078 64.0198 15.0669C64.1345 15.1072 64.1309 15.0193 64.1309 14.9863C64.1417 14.4806 64.1668 13.9676 64.1417 13.462C64.1386 13.4355 64.1286 13.4103 64.1129 13.3891C64.0972 13.3678 64.0762 13.3513 64.0521 13.3411C62.1047 12.574 60.1192 11.9123 58.1038 11.3587C58.0842 11.3519 58.0672 11.3391 58.055 11.322C58.0428 11.305 58.0361 11.2845 58.0357 11.2634L58.0643 10.6038C58.0643 10.5745 58.1145 10.5672 58.1432 10.5745C60.1631 11.1543 62.1594 11.8168 64.1273 12.5606C64.1632 12.5716 64.1632 12.5239 64.1632 12.4909C64.1887 11.9196 64.1887 11.3474 64.1632 10.776C64.162 10.7546 64.1546 10.7341 64.1418 10.7171C64.129 10.7 64.1115 10.6874 64.0915 10.6808C62.1608 9.96203 60.2028 9.32271 58.222 8.76435C58.1933 8.75702 58.1575 8.72771 58.1575 8.69839V7.99485C58.1575 7.96554 58.2041 7.94721 58.2328 7.95821C60.2538 8.48586 62.4754 9.27735 64.0198 9.85997C64.156 9.91127 64.2348 9.88929 64.2348 9.76104C64.2348 9.18574 64.2563 9.14544 64.2277 8.57381C64.2205 8.50052 64.2133 8.42724 64.1488 8.40159C61.605 7.39723 59.0106 6.53244 56.3766 5.81093H56.3802ZM9.90433 6.04545C9.80309 6.04449 9.70208 6.05556 9.60333 6.07842C7.27417 6.6867 4.93425 7.59544 2.59433 8.46754C2.56233 8.48765 2.53573 8.51561 2.51696 8.54888C2.49819 8.58215 2.48783 8.61969 2.48683 8.65809V14.0299L2.49758 15.2392C2.49758 15.2392 4.18533 14.5906 4.55083 14.4697C4.59742 14.455 4.59742 14.4074 4.59742 14.3561L4.56158 12.4506C4.56158 12.3957 4.56875 12.315 4.61892 12.3041L10.4418 10.4646C10.6377 10.3918 10.8092 10.2634 10.9363 10.0945C11.0632 9.93279 11.1293 9.73004 11.1227 9.52286L11.0618 7.02015C11.0466 6.87527 11.0006 6.73554 10.9269 6.61082C10.8532 6.4861 10.7537 6.37942 10.6353 6.29828C10.4217 6.14205 10.1669 6.05522 9.90433 6.04911V6.04545ZM8.8795 7.86294C9.0085 7.82629 9.13033 7.97653 9.1375 8.09379C9.17193 8.39781 9.1863 8.70386 9.1805 9.00986C9.17692 9.17475 8.944 9.3653 8.78633 9.41293L4.54367 10.8273C4.50425 10.842 4.43258 10.8273 4.43258 10.7834L4.43975 9.47156C4.43975 9.40927 4.51142 9.35797 4.56875 9.33964C5.97612 8.76142 7.41552 8.26833 8.8795 7.86294ZM33.8446 11.4576C36.1845 11.4942 38.3094 11.5675 40.6529 11.7801C45.5841 12.2002 50.4758 13.0124 55.2837 14.2095C58.7721 15.1186 62.1971 16.2657 65.5356 17.6429C65.5529 17.6502 65.5697 17.6588 65.5858 17.6686C65.5761 18.2158 65.5677 18.763 65.5607 19.3102H33.8446V11.4576ZM32.7087 11.4649L32.7051 28.3866H22.145C21.9909 28.372 22.0912 28.3024 22.1987 28.1961C22.9552 27.6182 23.8321 27.227 24.7608 27.0528C24.8397 27.0455 24.8612 27.0015 24.7501 26.855C24.322 26.4184 23.7824 26.1141 23.193 25.9767C22.6036 25.8393 21.9883 25.8744 21.4176 26.0781C20.9046 26.2474 20.4364 26.5345 20.0488 26.9176C19.6612 27.3006 19.3646 27.7693 19.1816 28.2877C19.1742 28.3206 19.1558 28.3499 19.1297 28.3706C19.1036 28.3913 19.0713 28.4022 19.0382 28.4013C18.4776 28.4372 17.9158 28.4531 17.3541 28.4489C17.2645 28.4489 17.2215 28.3317 17.2287 28.2437C17.3022 27.8772 17.4494 27.5302 17.661 27.2249C17.8726 26.9196 18.1439 26.6626 18.4578 26.4702C19.0138 26.0956 19.6537 25.8713 20.3175 25.818C20.3399 25.8111 20.3602 25.7988 20.3769 25.782C20.3935 25.7653 20.4059 25.7447 20.413 25.7219C20.4201 25.6992 20.4216 25.675 20.4174 25.6515C20.4133 25.628 20.4036 25.6059 20.3892 25.5871C20.2795 25.4565 20.1529 25.3418 20.0129 25.2463C19.4608 24.9419 18.8227 24.8422 18.2069 24.9642C17.3253 25.0516 16.5019 25.4534 15.8808 26.0992C15.2597 26.745 14.8806 27.5937 14.8099 28.4966C14.7741 28.7164 14.8314 28.7677 14.62 28.841C14.2187 28.9802 13.4662 29.0755 13.0648 29.1635C12.9932 29.1745 12.8857 29.0059 12.9036 28.9326C13.0525 28.2365 13.3512 27.5831 13.7779 27.0199C14.1026 26.5745 14.5216 26.21 15.0034 25.9535C15.0966 25.9059 15.1826 25.7923 15.0966 25.719C14.19 24.9129 12.3338 25.763 11.5849 26.6021C10.8778 27.5577 10.5282 28.7405 10.5995 29.9366C10.5995 29.9953 10.6497 30.0869 10.5995 30.1089C10.1297 30.3131 9.65147 30.4965 9.16617 30.6585C9.12317 30.6695 9.116 30.5559 9.10883 30.5119C8.96544 29.6465 9.15413 28.7579 9.63558 28.0312C9.84597 27.6633 10.1476 27.3587 10.5099 27.1481C10.5457 27.1261 10.5386 27.0821 10.5099 27.0455C10.0978 26.4995 8.471 26.8916 7.97292 27.3899C6.82625 28.5332 6.90867 29.6435 6.85492 31.4097C6.85133 31.4939 6.74742 31.8164 6.65425 31.8604C6.45068 31.9843 6.22758 32.0711 5.99492 32.1169C5.91967 32.1389 5.9125 32.1682 5.89458 32.0912C5.83269 31.8851 5.72598 31.696 5.58246 31.538C5.43893 31.38 5.26231 31.2573 5.06583 31.1791C4.86934 31.1008 4.65809 31.0691 4.4479 31.0861C4.2377 31.1032 4.03401 31.1687 3.85208 31.2778C3.69848 31.3788 3.56788 31.5123 3.4691 31.6694C3.37032 31.8264 3.30567 32.0033 3.27951 32.1881C3.25335 32.3729 3.2663 32.5613 3.31748 32.7406C3.36866 32.9198 3.45687 33.0858 3.57617 33.2272C3.62992 33.2895 3.64783 33.3517 3.56542 33.3774C3.37378 33.4377 3.19586 33.5366 3.0421 33.6682C2.88835 33.7997 2.76185 33.9614 2.67005 34.1437C2.57826 34.326 2.523 34.5252 2.50754 34.7296C2.49207 34.9341 2.51671 35.1396 2.58 35.3341C2.6662 35.5528 2.81197 35.7415 2.99999 35.8779C3.18802 36.0143 3.41038 36.0927 3.64067 36.1036C4.11225 36.1171 4.57605 35.9787 4.9665 35.7079C4.98297 35.6959 5.00159 35.6873 5.02131 35.6826C5.04103 35.6779 5.06146 35.6773 5.08142 35.6807C5.10139 35.6841 5.1205 35.6915 5.13768 35.7024C5.15485 35.7134 5.16974 35.7277 5.1815 35.7445C5.37517 36.0625 5.68428 36.2889 6.04099 36.3741C6.39771 36.4592 6.7729 36.3963 7.08425 36.1989C7.66475 35.8068 7.92275 35.1986 7.49275 34.1506C7.46767 34.0919 7.56442 33.982 7.61458 33.9527C11.0475 31.9322 14.9208 30.8235 18.8806 30.7281C19.4388 30.7776 19.9882 30.902 20.5146 31.0982C20.5432 31.1043 20.5709 31.1141 20.597 31.1275L20.6042 34.5756C20.567 34.6107 20.5261 34.6414 20.4823 34.6672C19.747 35.1278 19.1977 35.8429 18.9343 36.6826C18.92 36.7449 18.9128 36.7595 18.8089 36.7705C18.1173 36.8402 17.3792 36.9428 16.6912 36.9977C16.6518 37.005 16.5765 36.9281 16.5908 36.8878C17.0893 35.5248 17.9993 34.3594 19.1887 33.5606C19.2196 33.529 19.2398 33.4881 19.2462 33.4439C19.2527 33.3997 19.2451 33.3546 19.2246 33.3151C19.0562 33.15 18.8488 33.0326 18.6226 32.9743C18.0242 32.9279 17.4234 33.0234 16.8671 33.2535C16.3108 33.4836 15.814 33.842 15.4155 34.3008C14.7013 35.2109 14.3075 36.3403 14.2975 37.5071C14.2939 37.5877 14.3083 37.7196 14.2294 37.7452C13.7851 37.8881 13.2942 38.0164 12.8319 38.1483C12.7782 38.163 12.7065 38.108 12.6958 38.0494C12.5791 37.314 12.683 36.5597 12.9939 35.886C13.3048 35.2122 13.808 34.6506 14.4373 34.2752C14.62 34.1286 14.3011 33.9014 14.0717 33.9014C13.4007 33.8642 12.7337 34.0282 12.1525 34.3731C11.5714 34.7181 11.1013 35.2292 10.8002 35.8435C10.4693 36.777 10.4317 37.7928 10.6927 38.7492C10.7034 38.8335 10.7607 38.9801 10.6712 39.0021C10.3881 39.0717 9.72158 39.3319 9.51375 39.3978C9.4385 39.4235 9.38833 39.3868 9.34533 39.2879C9.18192 38.7064 9.15613 38.0935 9.27008 37.4997C9.4324 36.8229 9.76323 36.2006 10.2304 35.6932C10.2591 35.6566 10.2698 35.576 10.2304 35.5577C9.80455 35.3609 9.32342 35.3283 8.87592 35.466C8.51062 35.5606 8.16923 35.7337 7.8745 35.9738C7.57976 36.2139 7.33846 36.5155 7.16667 36.8585C6.59692 37.9468 6.74383 38.9948 7.34942 40.5411C7.37808 40.6144 7.41392 40.7536 7.34942 40.7976L6.8585 41.0907C6.79758 41.1384 6.74383 41.0981 6.70083 41.0358C6.50375 40.75 6.2565 40.2956 5.94833 40.1563C5.70556 40.0327 5.43434 39.9792 5.16402 40.0018C4.89369 40.0244 4.63456 40.1222 4.41467 40.2846C4.19959 40.4758 4.04419 40.7274 3.96774 41.0082C3.8913 41.289 3.89718 41.5865 3.98467 41.8639C4.08486 42.0618 4.20495 42.2484 4.343 42.4209C4.37883 42.4722 4.33942 42.5528 4.29642 42.5931C4.085 42.7836 3.79475 42.9229 3.62275 43.1061C3.4363 43.3517 3.33214 43.6521 3.32568 43.963C3.31923 44.2738 3.41083 44.5785 3.58692 44.832C3.762 45.0877 4.01906 45.2728 4.31356 45.3551C4.60807 45.4375 4.92145 45.4118 5.19942 45.2827C5.48785 45.1568 5.76587 45.0073 6.03075 44.8356C6.1275 44.7697 6.192 44.6488 6.28158 44.744C6.49876 44.997 6.77483 45.1898 7.08425 45.3047C7.29913 45.3634 7.52394 45.3734 7.74301 45.3342C7.96209 45.295 8.17017 45.2074 8.35275 45.0775C8.57447 44.9701 8.75441 44.7895 8.86361 44.5649C8.97281 44.3402 9.00491 44.0845 8.95475 43.839C8.84201 43.481 8.66856 43.1461 8.44233 42.8496C8.32408 42.7213 8.31692 42.7287 8.44233 42.6517C10.312 41.5229 12.3096 40.6319 14.3907 39.9988C16.3524 39.3955 18.4004 39.1389 20.4465 39.2403H20.6113L20.6221 46.382H2.00308C1.80958 38.566 1.58742 26.1917 1.44408 17.6686C1.46021 17.6589 1.47697 17.6503 1.49425 17.6429C4.83159 16.2658 8.25536 15.1188 11.7426 14.2095C16.5516 13.0122 21.4445 12.2 26.3769 11.7801C28.484 11.5933 30.5973 11.4882 32.7122 11.4649H32.7087ZM21.6433 14.455C20.7507 14.4762 19.8852 14.7725 19.1601 15.3051C18.1353 15.994 17.5261 18.1376 17.4043 18.9034C17.398 18.9386 17.3805 18.9706 17.3546 18.9944C17.3287 19.0183 17.2957 19.0327 17.2609 19.0354C16.4456 19.1406 15.6368 19.2935 14.8386 19.4934C14.8135 19.4971 14.7956 19.4568 14.7956 19.4311C14.8576 18.6248 15.1833 17.8632 15.7201 17.2692C16.265 16.7321 16.8563 16.2464 17.4867 15.8181C17.5333 15.7778 17.501 15.6532 17.4437 15.6312C16.9884 15.4452 16.5016 15.3533 16.0114 15.3608C15.5212 15.3684 15.0373 15.4752 14.5878 15.6752C13.9534 15.9503 13.3982 16.3865 12.9749 16.9425C12.5516 17.4985 12.2742 18.1558 12.169 18.8521C12.0855 19.3481 12.0507 19.8514 12.0651 20.3545C12.0723 20.4168 11.9576 20.4205 11.9038 20.4388C11.0223 20.7209 10.0978 21.0507 9.35967 21.3036C9.32383 21.3182 9.21992 21.3109 9.21992 21.2669C9.19229 20.4211 9.41051 19.5858 9.847 18.8668C10.277 18.1523 11.0761 17.7492 11.6566 17.1483C11.696 17.1043 11.7569 16.987 11.696 16.9614C10.2268 16.3568 8.84008 16.976 7.66833 18.3355C7.27159 18.9315 7.00263 19.6066 6.87911 20.3164C6.7556 21.0262 6.78032 21.7548 6.95167 22.4541C6.98392 22.5861 6.95167 22.729 6.88358 22.7583C6.61645 22.8861 6.34109 22.995 6.05942 23.0844C6.04694 23.0889 6.03366 23.0905 6.02051 23.0891C6.00737 23.0876 5.99469 23.0833 5.98339 23.0763C5.97208 23.0693 5.96244 23.0598 5.95514 23.0485C5.94784 23.0373 5.94307 23.0245 5.94117 23.0111C5.60792 21.9265 4.3645 22.139 3.80192 22.4688C3.50459 22.6399 3.28542 22.9243 3.19214 23.2599C3.09885 23.5955 3.13899 23.9552 3.30383 24.2606C3.31228 24.2735 3.31806 24.288 3.32084 24.3032C3.32361 24.3184 3.32331 24.3341 3.31995 24.3492C3.31659 24.3643 3.31025 24.3785 3.30132 24.391C3.29239 24.4035 3.28105 24.414 3.268 24.4219C3.07833 24.5146 2.9086 24.6449 2.7687 24.8054C2.62881 24.9658 2.52155 25.1531 2.45317 25.3564C2.3848 25.5597 2.35668 25.7748 2.37046 25.9894C2.38424 26.2039 2.43963 26.4134 2.53342 26.6058C2.69176 26.8591 2.93168 27.048 3.21171 27.1396C3.49175 27.2313 3.7943 27.22 4.06708 27.1078C4.37771 26.9854 4.6735 26.8268 4.94858 26.6351C4.96588 26.6263 4.98537 26.623 5.00453 26.6256C5.02369 26.6282 5.04165 26.6366 5.05608 26.6498C5.16691 26.8098 5.30853 26.9451 5.47228 27.0472C5.63603 27.1493 5.81845 27.2161 6.00835 27.2435C6.19826 27.271 6.39164 27.2585 6.57665 27.2068C6.76166 27.1551 6.93439 27.0653 7.08425 26.9429C7.49633 26.6424 7.65758 26.5911 7.81525 26.0488C7.83871 25.8527 7.82217 25.6538 7.76666 25.4646C7.71115 25.2754 7.61788 25.1 7.49275 24.9495C7.44975 24.9129 7.48917 24.803 7.53933 24.7773C12.197 22.3237 17.3372 20.9796 22.575 20.8455C24.4764 20.9031 26.3027 21.6173 27.7565 22.8719C27.7812 22.9084 27.8145 22.938 27.8533 22.9578C27.8922 22.9777 27.9353 22.9872 27.9787 22.9855C28.0229 22.9666 28.0629 22.9386 28.0962 22.9033C28.1295 22.8681 28.1553 22.8262 28.1722 22.7803C28.2937 22.3379 28.2895 21.8693 28.16 21.4293C28.0306 20.9894 27.7812 20.5962 27.4412 20.2959C26.8481 19.6633 26.0849 19.2247 25.2482 19.0354C25.2052 19.0244 25.1765 18.9291 25.2123 18.8998C25.5531 18.5484 25.962 18.2738 26.4127 18.0936C27.129 17.97 27.8543 17.9087 28.5807 17.9104C28.6308 17.9068 28.7061 17.8555 28.6882 17.8078C28.5462 17.4026 28.2921 17.0484 27.9568 16.7882C27.6216 16.528 27.2196 16.373 26.7998 16.3421C25.9548 16.2343 25.0971 16.3609 24.3165 16.7085C23.5101 17.1545 22.8777 17.8697 22.5248 18.7349C22.5142 18.7568 22.4979 18.7752 22.4776 18.7881C22.4574 18.8011 22.434 18.808 22.4102 18.8082C21.701 18.7819 20.9913 18.7733 20.2817 18.7825C20.2315 18.7825 20.1562 18.7825 20.1562 18.7312C20.26 18.0177 20.5795 17.3552 21.07 16.8368C21.7827 16.2051 22.6109 15.7243 23.5067 15.4224C23.5747 15.4004 23.65 15.2905 23.6106 15.2355C23.4235 14.9712 23.1763 14.7574 22.8903 14.6126C22.4849 14.5026 22.0663 14.452 21.6469 14.4623L21.6433 14.455ZM33.8446 20.3435H65.5392C65.4962 22.8572 65.4496 25.5944 65.3958 28.3866H33.8446V20.3435ZM21.6218 29.2404L45.5083 29.2514C45.5224 29.2503 45.5365 29.2545 45.5477 29.2633C45.559 29.2721 45.5666 29.2848 45.5693 29.299L45.5621 48.1262C45.5442 49.0819 45.371 50.028 45.0497 50.9257C44.0986 53.5808 42.2745 55.8153 39.8897 57.2466C38.0034 58.3995 35.852 59.0203 33.6547 59.0458C30.6755 59.0087 27.8059 57.8921 25.5563 55.8945C24.3409 54.8569 23.3581 53.5638 22.6749 52.1033C21.9917 50.6427 21.6239 49.0488 21.5967 47.43L21.5717 29.31C21.5717 29.2624 21.5752 29.2404 21.6218 29.2404ZM46.6837 29.5555H65.3779C65.3349 31.919 65.2883 34.3045 65.2561 36.613H46.6837V31.1349V29.5555ZM22.1773 29.8157C22.1307 29.8157 22.1271 29.834 22.1271 29.8817L22.1522 47.298C22.175 48.8542 22.524 50.3871 23.1755 51.7936C23.8271 53.2001 24.766 54.4473 25.929 55.4511C28.066 57.3679 30.8016 58.4424 33.6439 58.4815C35.7424 58.4564 37.7961 57.858 39.5923 56.7482C41.8731 55.3653 43.6134 53.2153 44.5158 50.6655C44.8216 49.8025 44.9862 48.8938 45.0031 47.9759L45.0103 29.8743C45.0098 29.8671 45.0079 29.8601 45.0048 29.8536C45.0017 29.8471 44.9973 29.8413 44.992 29.8365C44.9867 29.8317 44.9805 29.8281 44.9738 29.8258C44.9671 29.8235 44.96 29.8225 44.9529 29.823L22.1773 29.8157ZM38.0729 30.9297C38.0717 30.9296 38.0741 30.9296 38.0729 30.9297C38.1429 30.9404 38.2124 30.9702 38.2673 31.016C38.3221 31.0618 38.3639 31.1218 38.3882 31.1898L39.2554 33.8098C39.273 33.8505 39.2812 33.8948 39.2794 33.9393C39.2775 33.9838 39.2656 34.0273 39.2447 34.0663C39.2213 34.0953 39.1917 34.1184 39.1581 34.1336C39.1245 34.1489 39.0879 34.156 39.0512 34.1542C39.0017 34.1554 38.9531 34.1404 38.9125 34.1114C38.8719 34.0824 38.8414 34.0409 38.8254 33.993L38.6893 33.535H37.5068L37.3778 34.004C37.3419 34.1506 37.2344 34.1652 37.1233 34.1652C37.0914 34.1606 37.0608 34.1491 37.0336 34.1314C37.0064 34.1137 36.9833 34.0902 36.9657 34.0626C36.9451 34.0362 36.931 34.0051 36.9248 33.9719C36.9186 33.9387 36.9203 33.9044 36.9298 33.8721L37.7612 31.2045C37.7797 31.1317 37.8194 31.0664 37.8751 31.0173C37.9308 30.9682 37.9998 30.9377 38.0729 30.9297ZM35.3388 30.9553C35.3663 30.9539 35.3938 30.9539 35.4212 30.9553C35.604 30.943 35.7856 30.9927 35.9378 31.0967C36.0901 31.2007 36.2045 31.3532 36.2633 31.5306C36.2705 31.5522 36.2733 31.5751 36.2715 31.5979C36.2698 31.6207 36.2635 31.6428 36.2531 31.663C36.2427 31.6833 36.2284 31.7011 36.2111 31.7155C36.1938 31.7299 36.1737 31.7405 36.1523 31.7468C36.1092 31.7696 36.0592 31.7748 36.0126 31.7612C35.9659 31.7475 35.9262 31.7162 35.9014 31.6735C35.8561 31.5823 35.7889 31.5042 35.7063 31.4466C35.6236 31.3889 35.528 31.3536 35.4284 31.3437C35.3226 31.3503 35.221 31.3886 35.1363 31.4537C35.0516 31.5189 34.9874 31.608 34.9518 31.7101C34.8253 31.962 34.7578 32.2405 34.7547 32.5236C34.7478 32.8112 34.8041 33.0967 34.9196 33.3591C34.9621 33.4724 35.0381 33.5693 35.137 33.6363C35.2359 33.7033 35.3528 33.7371 35.4714 33.7328C35.6556 33.677 35.8153 33.558 35.9237 33.3958C36.0321 33.2336 36.0824 33.0382 36.0662 32.8424V32.6995H35.5825C35.5532 32.7007 35.5239 32.6955 35.4968 32.6841C35.4696 32.6727 35.4452 32.6555 35.4251 32.6336C35.405 32.6117 35.3898 32.5856 35.3805 32.5571C35.3712 32.5287 35.368 32.4985 35.3711 32.4687C35.3711 32.3844 35.3962 32.2854 35.5825 32.2854H36.2705C36.4998 32.2854 36.5321 32.4613 36.5321 32.6152C36.5365 32.8017 36.5233 32.9883 36.4927 33.1722C36.4214 33.5173 36.2305 33.8245 35.9552 34.037C35.7927 34.1369 35.6073 34.1912 35.4177 34.1945C35.2473 34.1916 35.081 34.1404 34.9374 34.0466C34.7938 33.9528 34.6785 33.8201 34.6043 33.6632C34.4215 33.3144 34.3313 32.9228 34.3427 32.5273C34.3356 32.136 34.4348 31.7504 34.6293 31.4133C34.6954 31.278 34.7965 31.1638 34.9216 31.083C35.0466 31.0023 35.1909 30.9581 35.3388 30.9553ZM24.6318 30.9626C24.6366 30.9626 24.6414 30.9626 24.6462 30.9626C25.3019 30.97 25.5169 31.3694 25.5169 31.5123C25.5169 31.6405 25.2983 31.8054 25.1765 31.6552C25.1066 31.5737 25.0199 31.5091 24.9226 31.466C24.8253 31.4229 24.7199 31.4024 24.6139 31.406C24.4986 31.3938 24.3827 31.422 24.2851 31.4859C24.1875 31.5498 24.1139 31.6456 24.0764 31.7578C24.0656 31.813 24.0658 31.8699 24.077 31.925C24.0883 31.9801 24.1103 32.0323 24.1417 32.0785C24.1732 32.1247 24.2135 32.164 24.2601 32.1939C24.3068 32.2237 24.3589 32.2437 24.4132 32.2525C24.75 32.2734 25.0775 32.3737 25.37 32.5456H25.3664C25.4659 32.621 25.5449 32.7212 25.5957 32.8367C25.6465 32.9521 25.6675 33.079 25.6567 33.2052C25.6621 33.4429 25.5759 33.6732 25.4166 33.8464C25.2988 33.9597 25.1594 34.0468 25.007 34.1023C24.8547 34.1578 24.6928 34.1805 24.5315 34.1689C24.3441 34.1758 24.1583 34.1321 23.9928 34.042C23.8273 33.9519 23.6881 33.8187 23.5891 33.6559C23.5747 33.6192 23.5532 33.425 23.7109 33.3701C23.7637 33.3574 23.8189 33.3596 23.8707 33.3763C23.9224 33.3931 23.9687 33.4239 24.0047 33.4653C24.1576 33.609 24.3562 33.6911 24.5637 33.6962C24.7563 33.7025 24.9447 33.6374 25.0941 33.513C25.1486 33.4592 25.186 33.3899 25.2013 33.314C25.2166 33.2382 25.2092 33.1594 25.1801 33.0879C25.1051 32.9719 25.0019 32.8778 24.8807 32.8149C24.7595 32.7519 24.6243 32.7223 24.4885 32.7288C24.2585 32.7274 24.0378 32.6356 23.8722 32.4723C23.783 32.3777 23.7148 32.2646 23.6721 32.1407C23.6295 32.0168 23.6134 31.885 23.6249 31.7541C23.6366 31.6333 23.6749 31.5168 23.737 31.4134C23.799 31.3099 23.8832 31.2222 23.9832 31.1568C24.1753 31.0265 24.4014 30.9588 24.6318 30.9626ZM30.5408 30.9626C30.5396 30.9626 30.5419 30.9626 30.5408 30.9626C30.5479 30.9623 30.5587 30.9623 30.5658 30.9626H31.8379C31.8949 30.9626 31.9496 30.9858 31.9899 31.027C32.0303 31.0683 32.0529 31.1242 32.0529 31.1825C32.0529 31.2408 32.0303 31.2967 31.9899 31.3379C31.9496 31.3792 31.8949 31.4023 31.8379 31.4023L31.4294 31.4097V33.9087C31.4225 33.9645 31.3959 34.0157 31.3547 34.0529C31.3135 34.09 31.2604 34.1105 31.2055 34.1105C31.1505 34.1105 31.0974 34.09 31.0562 34.0529C31.015 34.0157 30.9884 33.9645 30.9815 33.9087V31.406H30.5658C30.5088 31.4094 30.4528 31.3895 30.4101 31.3507C30.3675 31.3119 30.3416 31.2573 30.3383 31.199C30.335 31.1407 30.3544 31.0834 30.3924 31.0398C30.4304 30.9961 30.4837 30.9697 30.5408 30.9663V30.9626ZM32.5474 30.9626C32.5486 30.9626 32.5498 30.9626 32.551 30.9626C32.5582 30.9623 32.5653 30.9623 32.5725 30.9626H33.841C33.898 30.9626 33.9527 30.9858 33.993 31.027C34.0333 31.0683 34.056 31.1242 34.056 31.1825C34.056 31.2408 34.0333 31.2967 33.993 31.3379C33.9527 31.3792 33.898 31.4023 33.841 31.4023L33.4325 31.4097V33.9087C33.4256 33.9645 33.399 34.0157 33.3578 34.0529C33.3166 34.09 33.2635 34.1105 33.2085 34.1105C33.1536 34.1105 33.1005 34.09 33.0593 34.0529C33.0181 34.0157 32.9915 33.9645 32.9846 33.9087V31.406H32.5725C32.5155 31.4094 32.4595 31.3895 32.4168 31.3507C32.3741 31.3119 32.3483 31.2573 32.345 31.199C32.3416 31.1407 32.3611 31.0834 32.3991 31.0398C32.437 30.9961 32.4904 30.9697 32.5474 30.9663V30.9626ZM42.3658 30.9626C42.3681 30.9626 42.3705 30.9626 42.3729 30.9626C42.3801 30.9623 42.3873 30.9623 42.3944 30.9626H43.6593C43.7164 30.9626 43.771 30.9858 43.8114 31.027C43.8517 31.0683 43.8743 31.1242 43.8743 31.1825C43.8743 31.2408 43.8517 31.2967 43.8114 31.3379C43.771 31.3792 43.7164 31.4023 43.6593 31.4023L43.258 31.4097V33.9087C43.2511 33.9645 43.2245 34.0157 43.1833 34.0529C43.1421 34.09 43.089 34.1105 43.034 34.1105C42.9791 34.1105 42.926 34.09 42.8848 34.0529C42.8436 34.0157 42.817 33.9645 42.8101 33.9087V31.406H42.3944C42.3374 31.4094 42.2814 31.3895 42.2387 31.3507C42.196 31.3119 42.1702 31.2573 42.1669 31.199C42.1636 31.1407 42.183 31.0834 42.221 31.0398C42.2589 30.9961 42.3123 30.9697 42.3693 30.9663L42.3658 30.9626ZM39.9398 30.9773C39.9541 30.9759 39.9685 30.9759 39.9828 30.9773H40.6637C40.9274 30.9694 41.1873 31.0435 41.409 31.1898C41.523 31.2796 41.6166 31.3936 41.6834 31.5239C41.7502 31.6542 41.7886 31.7977 41.796 31.9447C41.8116 32.0775 41.7968 32.2122 41.7526 32.3382C41.7084 32.4641 41.6362 32.5778 41.5416 32.6702C41.4244 32.7936 41.2809 32.8876 41.1223 32.945L41.0507 32.9707L41.6168 33.7035C41.6677 33.7594 41.697 33.8324 41.6993 33.9087C41.6921 34.026 41.6168 34.0919 41.4842 34.0919C41.4454 34.0936 41.4068 34.0854 41.3718 34.0681C41.3368 34.0509 41.3065 34.0251 41.2836 33.993L40.6135 33.0476H40.1943V33.8904C40.1986 33.9224 40.1959 33.955 40.1864 33.9859C40.1768 34.0167 40.1606 34.0449 40.1389 34.0685C40.1172 34.092 40.0907 34.1103 40.0612 34.122C40.0317 34.1336 40 34.1384 39.9685 34.1359C39.9374 34.1372 39.9065 34.1316 39.8777 34.1194C39.849 34.1073 39.8232 34.0889 39.802 34.0656C39.7809 34.0422 39.765 34.0145 39.7554 33.9842C39.7458 33.954 39.7427 33.922 39.7463 33.8904V31.2301C39.7426 31.1639 39.763 31.0986 39.8037 31.0469C39.8398 31.0083 39.8879 30.9837 39.9398 30.9773ZM26.0723 30.9846C26.0759 30.9845 26.0795 30.9845 26.0831 30.9846H27.3623C27.4198 30.9846 27.475 31.008 27.5156 31.0495C27.5563 31.0911 27.5791 31.1475 27.5791 31.2063C27.5791 31.2651 27.5563 31.3215 27.5156 31.3631C27.475 31.4046 27.4198 31.428 27.3623 31.428H26.9467V33.9344C26.9398 33.9901 26.9132 34.0414 26.872 34.0785C26.8307 34.1157 26.7777 34.1362 26.7227 34.1362C26.6678 34.1362 26.6147 34.1157 26.5735 34.0785C26.5322 34.0414 26.5057 33.9901 26.4987 33.9344V31.428H26.0831C26.0261 31.4295 25.9708 31.4077 25.9295 31.3675C25.8882 31.3273 25.8641 31.2719 25.8627 31.2136C25.8613 31.1553 25.8826 31.0988 25.9219 31.0566C25.9612 31.0143 26.0153 30.9861 26.0723 30.9846ZM28.1614 30.9846C28.1638 30.9846 28.1662 30.9846 28.1686 30.9846C28.1991 30.9836 28.2296 30.989 28.258 31.0004C28.2865 31.0117 28.3124 31.0289 28.3342 31.0509C28.3559 31.0728 28.3731 31.099 28.3847 31.1279C28.3963 31.1569 28.402 31.1879 28.4015 31.2191V32.945C28.389 33.139 28.4353 33.3322 28.5341 33.4983C28.5873 33.5685 28.6568 33.6239 28.7363 33.6598C28.8157 33.6956 28.9026 33.7106 28.9892 33.7035C29.0748 33.7121 29.1612 33.6977 29.2398 33.6618C29.3183 33.6258 29.3863 33.5694 29.4371 33.4983C29.5312 33.3318 29.5748 33.1405 29.5625 32.9487V31.2155C29.5694 31.1597 29.5996 31.1085 29.6408 31.0713C29.682 31.0341 29.7351 31.0136 29.79 31.0136C29.845 31.0136 29.8981 31.0341 29.9393 31.0713C29.9805 31.1085 30.0071 31.1597 30.014 31.2155V32.7984C30.0388 33.1315 29.9691 33.4649 29.8133 33.7585C29.722 33.8899 29.5984 33.9944 29.4549 34.0613C29.3114 34.1282 29.1533 34.1552 28.9963 34.1396C28.8386 34.1529 28.6802 34.1248 28.536 34.0582C28.3918 33.9915 28.2666 33.8884 28.1722 33.7585C28.0066 33.4682 27.9304 33.1337 27.9536 32.7984V31.2155C27.9534 31.1573 27.9747 31.1012 28.0133 31.0584C28.0518 31.0156 28.1047 30.9892 28.1614 30.9846ZM40.1799 31.406V32.6079H40.6457C40.7345 32.6181 40.8243 32.6093 40.9096 32.5821C40.9948 32.555 41.0736 32.51 41.141 32.45C41.2084 32.3901 41.2628 32.3165 41.301 32.2339C41.3391 32.1514 41.36 32.0616 41.3624 31.9703C41.3606 31.8944 41.3434 31.8198 41.3119 31.751C41.2805 31.6823 41.2354 31.621 41.1797 31.5709C41.1166 31.5132 41.0429 31.4689 40.963 31.4406C40.883 31.4123 40.7983 31.4005 40.7138 31.406H40.1799ZM38.0872 31.461L37.5999 33.1795H38.5961L38.0872 31.461ZM34.0023 35.1436C34.0417 35.1436 34.0775 35.1509 34.0811 35.1839C34.0882 35.2499 34.0238 35.2902 33.9306 35.3378C33.7916 35.398 33.6741 35.5003 33.5938 35.6309C33.4944 35.8131 33.4461 36.0198 33.454 36.2282C33.4676 36.2909 33.495 36.3495 33.5341 36.3997C33.5732 36.4498 33.6231 36.4902 33.6797 36.5177C33.8385 36.5941 34.0133 36.6294 34.1886 36.6203C34.4591 36.6037 34.7225 36.5248 34.959 36.3894C35.2781 36.2839 35.6174 36.2588 35.948 36.3162C36.1973 36.3188 36.4399 36.3993 36.6432 36.547C36.7292 36.6093 36.7148 36.6863 36.6826 36.6936C36.6324 36.7119 36.5787 36.6496 36.5249 36.6569C36.3519 36.6747 36.1813 36.7116 36.0161 36.7669C35.8011 36.8658 35.7043 36.9024 35.6004 37.0967C35.5589 37.1792 35.5499 37.275 35.5753 37.3641C35.6112 37.4521 35.7007 37.5107 35.7187 37.573C35.771 37.7371 35.8484 37.8917 35.948 38.031C35.9812 38.0625 36.0172 38.0907 36.0555 38.1153C36.4122 38.3877 36.7499 38.6852 37.066 39.0057C37.1352 39.1086 37.1839 39.2244 37.2093 39.3465C37.2201 39.3905 37.1842 39.4565 37.1448 39.4381C37.0988 39.4068 37.0556 39.3712 37.0158 39.3319C36.9618 39.2726 36.8974 39.2241 36.8259 39.189C36.6262 39.1062 36.4096 39.0747 36.1953 39.0974C36.0985 39.0974 35.905 39.1853 36.0161 39.2293C36.2059 39.3284 36.3685 39.4746 36.4891 39.6543C36.7586 39.9663 36.8965 40.3747 36.8725 40.7903C36.8725 40.8122 36.8295 40.8269 36.8187 40.8122C36.7256 40.6544 36.6011 40.5183 36.4533 40.4128C36.2358 40.2501 35.9698 40.1698 35.7007 40.1857C35.647 40.1893 35.4858 40.1856 35.5037 40.2369C35.6721 40.4553 35.8197 40.6897 35.9444 40.9368C36.0733 41.2566 36.1214 41.6044 36.0842 41.9482C36.0806 41.9665 36.0125 41.9848 36.0018 41.9665C35.918 41.8655 35.8257 41.7723 35.7258 41.688C35.6258 41.5967 35.5121 41.5225 35.389 41.4682C35.1413 41.4098 34.8812 41.4463 34.658 41.5708C34.4601 41.6824 34.2983 41.8504 34.1922 42.0544C34.0651 42.2851 33.9892 42.5416 33.97 42.8056C33.9304 43.1278 33.9827 43.4548 34.1205 43.7473C34.2716 44.0231 34.5125 44.2357 34.8013 44.3483C35.1878 44.4741 35.593 44.5287 35.9982 44.5095C36.4963 44.5278 36.9943 44.4509 37.4924 44.4362C37.9645 44.3905 38.44 44.3941 38.9114 44.4472C39.2932 44.5247 39.6577 44.6738 39.9864 44.8869C40.2547 45.0962 40.5119 45.3201 40.7568 45.5575C40.7855 45.5795 40.85 45.5465 40.8822 45.5245C41.1176 45.2934 41.2809 44.9964 41.3517 44.6707C41.3981 44.3552 41.3265 44.0333 41.151 43.7693C40.9826 43.4579 40.7353 43.1098 40.5418 42.78C40.2794 42.4337 40.0377 42.0715 39.818 41.6953C39.6991 41.4428 39.6774 41.1537 39.7571 40.8855C39.8254 40.687 39.9615 40.5204 40.1405 40.4165C40.1799 40.3909 40.2193 40.4385 40.2014 40.4935C40.1503 40.6239 40.1403 40.7673 40.1727 40.9039C40.2331 41.1005 40.3431 41.2775 40.4917 41.4169C40.5382 41.4535 40.6601 41.3985 40.6888 41.3399C40.7533 41.1823 40.7138 40.9368 40.7712 40.7756C40.8436 40.4755 40.9753 40.1937 41.1582 39.9475C41.5533 39.6476 41.9875 39.4059 42.4482 39.2293C42.5664 39.1597 42.6417 38.8445 42.7743 38.8958C42.9068 38.9435 42.8352 39.2622 42.7348 39.4161C42.5915 39.6433 42.4231 39.7826 42.2654 39.9878C42.0501 40.2705 41.8618 40.5735 41.7028 40.8929C41.6161 41.0443 41.5797 41.2205 41.5989 41.3949C41.6151 41.4684 41.6469 41.5374 41.6921 41.5969C41.7373 41.6565 41.7948 41.7051 41.8605 41.7393C41.9393 41.776 42.0397 41.7027 42.1113 41.6477C42.249 41.5449 42.3669 41.417 42.4589 41.2703C42.5413 41.131 42.4948 40.9442 42.5736 40.8013C42.5951 40.7683 42.6811 40.7756 42.7062 40.8013C42.7924 40.8818 42.8482 40.9907 42.8638 41.1091C42.8715 41.2481 42.8595 41.3876 42.828 41.5231C42.8172 41.5524 42.742 41.6221 42.7169 41.688C42.6975 41.739 42.6735 41.7881 42.6453 41.8346C42.5163 42.0654 42.3658 42.2596 42.1973 42.2963C42.1615 42.2999 42.1364 42.3732 42.1615 42.4062C42.2593 42.5965 42.3977 42.7618 42.5664 42.8899C42.6503 42.9325 42.7417 42.9576 42.8352 42.9639C42.9286 42.9702 43.0224 42.9575 43.1111 42.9265C43.2078 42.8972 43.2831 42.8276 43.3942 42.791C43.4408 42.7763 43.4121 42.8056 43.4121 42.8533C43.411 42.9606 43.3928 43.067 43.3583 43.1684C43.3006 43.295 43.207 43.401 43.0896 43.4725C42.907 43.5779 42.7038 43.6405 42.4948 43.6557C42.398 43.6741 42.2511 43.7473 42.2869 43.8426C42.3177 43.9551 42.3687 44.0607 42.4374 44.1541C42.512 44.2369 42.6143 44.288 42.7241 44.297C42.8834 44.3039 43.0407 44.2576 43.172 44.1651C43.3153 44.0698 43.3906 43.8939 43.516 43.7693C43.5411 43.7473 43.6092 43.7693 43.6092 43.806C43.6042 44.0079 43.5539 44.206 43.4622 44.3849C43.3423 44.5818 43.1866 44.7535 43.0036 44.8906C42.9498 44.9382 42.8853 44.9969 42.8853 45.0702C42.913 45.1842 42.9671 45.2898 43.043 45.378C43.1138 45.4803 43.2202 45.5511 43.3404 45.5758C43.4588 45.5987 43.5804 45.5987 43.6987 45.5758C43.7453 45.5758 43.7346 45.6601 43.6952 45.6894C43.5801 45.8099 43.4352 45.896 43.2759 45.9386C43.1281 45.989 42.97 45.9991 42.8172 45.9679C42.527 45.8946 42.3371 45.7847 42.0504 45.7004C41.896 45.6401 41.7275 45.6286 41.5667 45.6674C41.4129 45.7272 41.2805 45.8332 41.1868 45.9716C41.131 46.0384 41.0938 46.1194 41.0793 46.2061C41.0578 46.4369 41.1689 46.6824 41.0973 46.9096C41.0252 47.2036 40.9281 47.4905 40.807 47.7671C40.6849 47.9791 40.5472 48.1812 40.3949 48.3717C40.2516 48.5696 40.0617 48.6428 39.9649 48.859C39.9239 48.9386 39.8784 49.0157 39.8288 49.0899C39.6968 49.3493 39.6257 49.6366 39.6209 49.929C39.6575 50.2065 39.7623 50.47 39.9255 50.6948L40.4738 51.5633C40.5126 51.6594 40.5238 51.765 40.506 51.8674C40.5023 51.9201 40.486 51.9711 40.4585 52.0158C40.431 52.0605 40.3932 52.0976 40.3483 52.1239C39.6206 52.5426 39.0818 53.2356 38.8469 54.055L38.8398 54.1026V54.1173C38.8262 54.1737 38.8005 54.2263 38.7645 54.2712C38.5812 54.4612 38.3421 54.5848 38.0837 54.623C37.8866 54.6779 37.6895 54.7292 37.4924 54.7915C37.4282 54.8088 37.3722 54.8491 37.3348 54.9051C37.3011 54.9597 37.286 55.0242 37.2919 55.0884C37.2977 55.1527 37.3241 55.2132 37.367 55.2605C37.4264 55.335 37.4638 55.4253 37.4745 55.5207C37.4775 55.5761 37.461 55.6307 37.4279 55.6746C37.3991 55.707 37.3652 55.7342 37.3276 55.7552C37.0848 55.8967 36.8245 56.0039 36.5536 56.074C36.3744 56.1143 36.2454 56.0667 36.3027 55.8578C36.4021 55.4942 36.5193 55.1358 36.6539 54.7842C36.7717 54.5777 36.9348 54.402 37.1305 54.2712C37.3722 54.0584 37.6259 53.8602 37.8902 53.6776C38.0628 53.5564 38.2082 53.399 38.3166 53.2159C38.5267 52.8684 38.754 52.5321 38.9974 52.2082C39.0461 52.1412 39.0805 52.0645 39.0984 51.9831C39.1162 51.9017 39.1173 51.8173 39.1013 51.7355C39.078 51.5883 39.0193 51.4493 38.9305 51.331C38.8417 51.2127 38.7255 51.1187 38.5925 51.0576C38.4928 51.0116 38.3912 50.97 38.2879 50.933C37.9399 50.8104 37.6338 50.5878 37.4064 50.2918C37.3816 50.2527 37.349 50.2194 37.3107 50.1941C37.2724 50.1689 37.2293 50.1522 37.1842 50.1452C36.9585 50.1525 36.894 50.475 36.8868 50.6509C36.8686 50.9097 36.8734 51.1697 36.9012 51.4277C36.9233 51.5138 36.9282 51.6035 36.9155 51.6915C36.904 51.7224 36.8852 51.7499 36.8608 51.7717C36.8365 51.7934 36.8073 51.8087 36.7757 51.8161C36.0647 52.0761 35.3853 52.4192 34.7512 52.8385C34.6601 52.9079 34.5834 52.995 34.5254 53.095L34.4645 53.2012C34.3849 53.3369 34.2618 53.4403 34.1161 53.4937C33.9705 53.5471 33.8112 53.5474 33.6654 53.4944C33.6135 53.4785 33.5609 53.465 33.5078 53.4541C33.4264 53.4457 33.3449 53.4678 33.2784 53.5163C33.2225 53.5515 33.1728 53.5961 33.1315 53.6483C33.1156 53.6691 33.1034 53.6927 33.0957 53.7179V53.7399C33.095 53.7496 33.095 53.7594 33.0957 53.7692C33.0979 53.7905 33.1027 53.8114 33.11 53.8315L33.1888 54.0513C33.2065 54.0829 33.2171 54.1181 33.2196 54.1543C33.2222 54.1906 33.2167 54.227 33.2036 54.2608C33.1906 54.2946 33.1702 54.3249 33.144 54.3496C33.1179 54.3742 33.0867 54.3925 33.0527 54.4031C32.8189 54.4997 32.5747 54.5674 32.3253 54.6046C32.1819 54.623 32.0565 54.568 32.0923 54.3958C32.1438 54.0976 32.2279 53.8063 32.3432 53.5273C32.3586 53.4772 32.385 53.4313 32.4204 53.3932C32.4558 53.3551 32.4992 53.3258 32.5474 53.3075C32.7843 53.169 33.0003 52.9962 33.1888 52.7945C33.3531 52.6344 33.5679 52.5396 33.7944 52.527C34.1346 52.4966 34.4598 52.3697 34.7332 52.1606C35.0203 51.957 35.29 51.729 35.5395 51.479C35.7225 51.2368 35.82 50.9384 35.8161 50.6324C35.8122 50.3263 35.7071 50.0307 35.518 49.7934L35.4463 49.6652C35.3783 49.5552 35.3388 49.3977 35.2815 49.2841C35.2064 49.17 35.1586 49.0395 35.1418 48.903C35.1418 48.6538 35.2385 48.4156 35.2528 48.1665C35.2547 48.1468 35.2501 48.1271 35.2397 48.1105C35.2293 48.0939 35.2137 48.0814 35.1955 48.0749C35.0379 48.0142 34.8725 47.9772 34.7046 47.9649C34.0383 48.044 33.3657 48.0514 32.6979 47.9869C32.2021 47.8406 31.7309 47.6183 31.3004 47.3274C31.1105 47.2064 30.9958 47.0709 30.8023 46.9573C30.7522 46.9279 30.7486 46.9389 30.702 46.9792C30.2267 47.3319 29.6418 47.4948 29.0572 47.4373H29.0501C28.6916 47.3744 28.3392 47.28 27.9966 47.1551C27.735 47.0562 27.3158 46.884 27.0649 47.1002C26.961 47.1918 26.9861 47.32 26.9861 47.4409C27.019 47.8136 27.007 48.1889 26.9503 48.5586C26.9436 48.5777 26.941 48.5981 26.9429 48.6184C26.9448 48.6387 26.9509 48.6583 26.961 48.6758C26.9675 48.6838 26.9747 48.6912 26.9825 48.6978C27.0216 48.7288 27.0651 48.7535 27.1115 48.7711L27.1473 48.7857C27.2477 48.8224 27.2656 48.87 27.3265 48.9983C27.3577 49.0703 27.377 49.147 27.3838 49.2255C27.3949 49.3012 27.3912 49.3784 27.3731 49.4526C27.3641 49.5007 27.3533 49.5483 27.3408 49.5956C27.296 49.7591 27.3061 49.9333 27.3695 50.0902C27.3995 50.1689 27.4519 50.2366 27.52 50.2844C27.5316 50.2902 27.5436 50.2951 27.5558 50.2991C27.5675 50.3038 27.5794 50.3074 27.5917 50.3101C27.6036 50.311 27.6156 50.311 27.6275 50.3101H27.6633C27.6885 50.3039 27.7126 50.2941 27.735 50.2808L27.7493 50.2734C27.7841 50.2429 27.829 50.2272 27.8747 50.2295C27.8871 50.2317 27.8991 50.2354 27.9106 50.2405C27.9721 50.2541 28.0275 50.288 28.0683 50.337C28.1091 50.386 28.133 50.4474 28.1363 50.5116C28.1446 50.7911 28.0881 51.0686 27.9715 51.3214C27.9606 51.3473 27.9448 51.3707 27.925 51.3903C27.9051 51.4099 27.8817 51.4252 27.856 51.4355C27.8304 51.4457 27.803 51.4506 27.7754 51.4499C27.7479 51.4492 27.7207 51.4429 27.6956 51.4314L27.6311 51.4057C27.4367 51.2998 27.2659 51.1538 27.1294 50.977C27.0283 50.8637 26.9665 50.7194 26.9538 50.5666C26.9582 50.4571 26.9224 50.35 26.8535 50.2661C26.8195 50.2389 26.7805 50.219 26.7388 50.2075C26.6407 50.178 26.5534 50.1193 26.488 50.0389C26.4019 49.927 26.3406 49.7972 26.3085 49.6587C26.2763 49.5201 26.274 49.376 26.3017 49.2365C26.4128 48.4517 26.3566 47.6517 26.1368 46.8913C26.0907 46.7631 26.0933 46.6219 26.144 46.4956L26.2013 46.338C26.2086 46.318 26.2169 46.2984 26.2264 46.2794C26.2411 46.2494 26.2623 46.2232 26.2884 46.2029C26.3145 46.1826 26.3447 46.1686 26.3769 46.1621C26.4112 46.1554 26.4459 46.1517 26.4808 46.1511C27.0279 46.1491 27.5715 46.0627 28.0933 45.8946C28.1641 45.8667 28.2398 45.8542 28.3155 45.858C28.4026 45.8641 28.4898 45.8665 28.5771 45.8653C28.6846 45.8653 28.7921 45.7664 28.6631 45.6821C28.5555 45.5833 28.4549 45.4768 28.3621 45.3633C28.3442 45.3306 28.3162 45.3049 28.2824 45.2903C28.2487 45.2757 28.2112 45.273 28.1758 45.2827C28.1634 45.2878 28.1514 45.294 28.1399 45.301L28.1077 45.3193C28.0675 45.3555 28.0198 45.3817 27.9682 45.3961C27.9166 45.4105 27.8625 45.4127 27.8099 45.4024C27.7574 45.3922 27.7078 45.3698 27.665 45.337C27.6222 45.3042 27.5873 45.2618 27.563 45.2131C27.4272 44.9817 27.3224 44.7327 27.2512 44.4729C27.1909 44.1545 27.057 43.8555 26.8607 43.6008C26.7708 43.5134 26.6632 43.4474 26.5455 43.4075C26.4278 43.3676 26.3029 43.3548 26.1798 43.3699C25.9847 43.4229 25.8175 43.5518 25.714 43.729L25.4883 44.0515C25.431 44.1221 25.3927 44.2067 25.3772 44.297C25.3757 44.3165 25.3757 44.3361 25.3772 44.3556C25.3822 44.3957 25.3918 44.4351 25.4058 44.4729C25.445 44.5698 25.4526 44.677 25.4274 44.7787C25.4022 44.8804 25.3456 44.971 25.2661 45.0372L24.9293 45.312C24.898 45.3395 24.8724 45.3732 24.8539 45.4109C24.8355 45.4486 24.8245 45.4898 24.8218 45.5319C24.8116 45.6059 24.7972 45.6793 24.7788 45.7517C24.7658 45.8056 24.7622 45.8614 24.768 45.9166C24.7694 45.9314 24.7718 45.9461 24.7752 45.9606C24.7959 46.0203 24.8349 46.0717 24.8862 46.1071C24.9026 46.1209 24.9181 46.1356 24.9328 46.1511C24.95 46.1697 24.9644 46.1907 24.9758 46.2134C24.9963 46.2553 25.0032 46.3027 24.9954 46.3489C24.9877 46.395 24.9658 46.4374 24.9328 46.4699C24.906 46.4977 24.8773 46.5234 24.8468 46.5469C24.6399 46.7119 24.4106 46.8452 24.166 46.9426C24.1361 46.9542 24.1047 46.9616 24.0728 46.9646C23.9367 46.9756 23.8937 46.8693 23.8865 46.7447C23.8757 46.5835 23.8758 46.4186 23.8758 46.2537C23.8808 46.0663 23.9536 45.8875 24.08 45.7517C24.2542 45.5144 24.3451 45.2239 24.338 44.9272C24.329 44.7561 24.3798 44.5872 24.4813 44.4509C24.5678 44.3541 24.6369 44.2424 24.6856 44.1211C24.7201 44.0338 24.7672 43.9523 24.8253 43.8793C25.1889 43.4318 25.5252 42.9619 25.8323 42.4722C26.0257 42.157 26.3877 41.7686 26.6815 42.2047C26.7578 42.322 26.8522 42.4259 26.961 42.5125C27.2575 42.7329 27.5675 42.9336 27.8891 43.1134C28.2259 43.3076 28.2797 42.9595 28.337 42.67V42.659C28.3655 42.5403 28.4114 42.4266 28.4732 42.3219C28.676 41.9901 28.9192 41.686 29.197 41.4169C29.3511 41.2776 29.5732 41.1384 29.7345 41.0028C29.799 40.9442 29.8169 40.9368 29.842 40.8562C29.8743 40.7756 29.928 40.673 29.9638 40.5704C29.9997 40.4715 30.0176 40.3689 30.0498 40.2919C30.1205 40.1814 30.1737 40.0602 30.2075 39.9328V39.9218C30.2082 39.9157 30.2082 39.9096 30.2075 39.9035V39.8779L30.1968 39.8522C30.1817 39.8153 30.1553 39.7844 30.1215 39.7643C30.0117 39.696 29.8844 39.6628 29.756 39.669H29.7453C29.5629 39.6705 29.3826 39.7091 29.2149 39.7826C29.1286 39.8217 29.0596 39.8922 29.0214 39.9805C28.9843 40.0655 28.9334 40.1436 28.8709 40.2113C28.8094 40.2726 28.7279 40.3087 28.6421 40.3128C28.5562 40.3168 28.4719 40.2885 28.4051 40.2333C28.3191 40.1747 28.3549 40.0757 28.4051 40.0024C28.4512 39.9446 28.4932 39.8834 28.5305 39.8192C28.5456 39.7913 28.5519 39.7593 28.5484 39.7276V39.713L28.5413 39.6946C28.5362 39.6866 28.5302 39.6792 28.5233 39.6726C28.5009 39.6544 28.4743 39.6425 28.446 39.638C28.4178 39.6335 28.3888 39.6366 28.3621 39.647C28.2616 39.6754 28.1623 39.7085 28.0647 39.7459C28.0322 39.7641 27.9959 39.7739 27.9589 39.7746C27.9219 39.7752 27.8853 39.7668 27.8522 39.7498C27.8191 39.7329 27.7905 39.7081 27.7689 39.6774C27.7472 39.6467 27.7331 39.6112 27.7278 39.5737C27.7138 39.5075 27.7102 39.4395 27.7171 39.3722C27.7193 39.3302 27.7343 39.2899 27.76 39.257C27.7857 39.2242 27.8208 39.2004 27.8604 39.189C27.9321 39.167 28.0396 39.1267 28.0253 39.0351C28.0212 39.0071 28.0212 38.9787 28.0253 38.9508C28.0318 38.9181 28.0466 38.8878 28.0682 38.8628C28.0997 38.8273 28.1359 38.7965 28.1758 38.7712C28.5721 38.5056 28.9548 38.2195 29.3224 37.9138C29.3502 37.8808 29.3885 37.8591 29.4305 37.8524C29.4725 37.8456 29.5155 37.8544 29.5518 37.8771L29.5876 37.8991C29.7539 37.9877 29.9455 38.0137 30.1287 37.9724C30.161 37.9709 30.1922 37.9596 30.2183 37.9401C30.2444 37.9205 30.2644 37.8935 30.2756 37.8625C30.2762 37.8564 30.2762 37.8503 30.2756 37.8442V37.8258L30.2684 37.8039L30.2577 37.7892C30.2241 37.7516 30.1805 37.7248 30.1322 37.7123L29.9244 37.6353C29.8593 37.6117 29.7968 37.581 29.7381 37.5437C29.7021 37.5226 29.6739 37.49 29.6577 37.451C29.6416 37.412 29.6383 37.3686 29.6485 37.3275C29.7309 36.9134 30.1752 36.9098 30.5121 36.9428H30.5264C30.6965 36.9401 30.8654 36.913 31.0281 36.8621C31.2431 36.7852 31.4079 36.6166 31.6122 36.5177C31.8164 36.4188 32.0314 36.3088 32.2428 36.2246C32.3073 36.2026 32.3611 36.2172 32.4184 36.1916C32.4668 36.1717 32.5098 36.1403 32.5438 36.1C32.691 35.882 32.8617 35.6817 33.0527 35.5027C33.3158 35.3463 33.6011 35.2326 33.8983 35.1656C33.933 35.153 33.9692 35.1456 34.0058 35.1436H34.0023ZM32.4793 37.1846C32.3481 37.1837 32.2187 37.2164 32.1031 37.2799C32.0708 37.2982 32.0493 37.3385 32.0744 37.3678C32.1389 37.4448 32.25 37.4777 32.3253 37.551C32.3767 37.599 32.4192 37.6561 32.4507 37.7196C32.4829 37.7892 32.5367 37.8662 32.5689 37.9394C32.6301 38.0868 32.6839 38.2372 32.7302 38.3901C32.8117 38.6396 32.8716 38.8958 32.9093 39.156C32.9452 39.3648 32.9344 39.5847 32.9452 39.7972V40.094C32.9416 40.1783 32.9416 40.2663 32.9344 40.3505C32.9246 40.47 32.9198 40.5898 32.9201 40.7096V41.0028C32.9272 41.2593 32.9667 41.4425 33.0778 41.4425C33.1821 41.4445 33.2854 41.4207 33.3787 41.3729C33.4706 41.3166 33.5468 41.2372 33.6001 41.1423C33.6534 41.0473 33.6821 40.94 33.6833 40.8306C33.7781 40.1301 33.7744 39.4194 33.6726 38.7199C33.6556 38.4633 33.587 38.2131 33.4711 37.9848C33.3552 37.7566 33.1944 37.5553 32.9989 37.3935C32.8575 37.2619 32.6705 37.1876 32.4793 37.1846ZM46.6693 37.7745H65.2203C65.1593 40.7976 65.0984 43.6374 65.0411 46.0668H46.6586L46.6729 39.2439L46.6693 37.7745ZM46.6478 47.0965H65.0053C64.8922 50.7334 64.2336 54.3309 63.0523 57.7633C61.6453 61.7878 59.7684 65.624 57.4623 69.1885C55.0563 72.86 52.1412 76.1544 48.8086 78.9685C47.507 80.0957 46.1339 81.1337 44.6985 82.0758C42.4508 83.475 40.103 84.6987 37.6752 85.7365C36.8725 86.0882 36.1773 86.418 35.5395 86.6415C34.8479 86.8797 34.2567 87.0996 33.841 87.2132V86.7918L33.8517 60.0608C34.2302 60.0499 34.6081 60.0218 34.9841 59.9765C35.002 60.0315 35.0414 60.1854 35.0952 60.3429C35.1761 60.4956 35.288 60.6288 35.4233 60.7337C35.5587 60.8386 35.7143 60.9127 35.8799 60.9512C36.0803 60.9928 36.2879 60.9783 36.4809 60.9093C36.6739 60.8403 36.8451 60.7193 36.9764 60.5591C37.1627 60.7286 37.3916 60.8414 37.6373 60.8847C37.883 60.9281 38.1357 60.9004 38.3668 60.8046C38.5464 60.7561 38.7052 60.6482 38.8187 60.4978C38.9321 60.3474 38.9937 60.1628 38.9938 59.9728C39.0168 59.7127 38.9762 59.4508 38.8756 59.2107L38.7466 58.9688C39.6858 58.5681 40.5797 58.0644 41.4126 57.4664L41.4842 57.4445C42.8208 57.1 48.1922 55.1323 51.4853 55.0883C53.5168 55.0413 55.5255 55.5337 57.3154 56.5174C58.2313 57.0646 59.0562 57.7573 59.7593 58.5694C59.7808 58.6024 59.8058 58.672 59.8918 58.6867C59.9177 58.6873 59.9432 58.6799 59.9649 58.6655C59.9866 58.6512 60.0036 58.6304 60.0137 58.606C60.2499 58.0067 60.3468 57.3594 60.2968 56.7153C60.2251 55.6819 59.2218 54.9344 58.9243 54.6266C58.9136 54.6156 58.8885 54.5497 58.996 54.4764C59.1109 54.3599 59.237 54.2556 59.3723 54.1649C59.9478 53.6975 60.652 53.4258 61.3861 53.3881C61.4936 53.3991 61.4578 53.2415 61.4291 53.1096C61.2213 52.1935 59.942 51.5999 58.5983 51.8125C58.1516 51.9061 57.7274 52.0894 57.3504 52.3516C56.9734 52.6139 56.6509 52.95 56.4017 53.3405C56.3766 53.3808 56.2512 53.4394 56.201 53.3881C55.7691 53.2279 55.3274 53.0969 54.8787 52.996C54.7175 52.9594 54.8035 52.8348 54.8107 52.8128C55.0767 52.3215 55.4494 51.899 55.9 51.5779C56.4158 51.1608 57.0235 50.879 57.6702 50.7571C57.749 50.7571 57.749 50.6472 57.7275 50.6106C57.6003 50.334 57.4131 50.0906 57.1803 49.8989C56.9475 49.7072 56.6751 49.5721 56.3838 49.5039C55.9124 49.349 55.411 49.3147 54.9237 49.4041C54.4364 49.4936 53.978 49.704 53.5887 50.0169C52.8316 50.6607 52.2769 51.5185 51.9942 52.483C51.944 52.5563 51.9297 52.6149 51.8652 52.6003C51.5104 52.527 50.6289 52.5746 50.5501 52.5197C50.4963 52.494 50.5071 52.4097 50.5178 52.3548C50.6676 51.8311 50.9408 51.3529 51.3133 50.9623C51.6491 50.5005 52.0994 50.1387 52.6177 49.9143C52.6487 49.8998 52.6755 49.8772 52.6954 49.8488C52.7154 49.8204 52.7277 49.7873 52.7313 49.7525C52.735 49.7178 52.7297 49.6827 52.716 49.6507C52.7024 49.6187 52.6808 49.5908 52.6535 49.5699C51.9288 49.186 51.096 49.0723 50.2983 49.2481C49.5005 49.424 48.7875 49.8785 48.2818 50.5336C47.7764 51.3124 47.4077 52.1755 47.1925 53.084C47.1853 53.1169 47.1316 53.2159 47.0635 53.2159L45.2432 53.6263L44.9458 53.6959L44.8669 53.7802C45.9753 51.9624 46.59 49.8755 46.6478 47.7341V47.0965ZM2.03533 47.408H20.6328V47.7378C20.6671 50.5917 21.7359 53.3311 23.6321 55.4254H3.25725C2.552 52.8093 2.14443 50.1194 2.03533 47.408ZM3.52242 56.3598H24.5315C24.6618 56.486 24.7956 56.6082 24.9328 56.7263C27.1322 58.6147 29.8475 59.7637 32.7087 60.0168V64.4506H6.837C5.72467 62.2927 4.76661 60.0553 3.97033 57.7559C3.81231 57.2948 3.66298 56.8305 3.52242 56.3635V56.3598ZM41.4484 57.4225L41.4126 57.4664H41.4054L41.3983 57.4591C41.4162 57.447 41.4341 57.4347 41.452 57.4225H41.4484ZM47.6763 58.1004C47.029 58.1013 46.3966 58.299 45.8595 58.6683C45.2503 59.0081 44.7594 59.5331 44.4548 60.1707C44.1111 61.0803 43.9033 62.0376 43.8385 63.0105C43.826 63.0405 43.8073 63.0675 43.7839 63.0896C43.7604 63.1117 43.7326 63.1285 43.7023 63.1388C43.2963 63.2205 42.8955 63.3269 42.5019 63.4576C42.4824 63.4558 42.4639 63.4477 42.4491 63.4346C42.4343 63.4214 42.4239 63.4038 42.4195 63.3843C42.2929 62.4595 42.4828 61.5184 42.957 60.7203C43.1538 60.3503 43.4191 60.023 43.7382 59.7566C43.7615 59.7413 43.7795 59.7189 43.7897 59.6925C43.7999 59.6662 43.8018 59.6372 43.7951 59.6097C43.7884 59.5822 43.7734 59.5575 43.7522 59.5392C43.7311 59.5209 43.7049 59.5098 43.6773 59.5075C42.8793 59.3689 42.059 59.5165 41.3553 59.9252C40.916 60.1731 40.5402 60.5238 40.2587 60.9486C39.9772 61.3733 39.798 61.8601 39.7356 62.3693C39.6512 63.098 39.7022 63.8365 39.8861 64.5459C39.8861 64.5679 39.9076 64.6448 39.8288 64.6595C39.5564 64.795 38.8182 65.1908 38.5567 65.319C38.5387 65.3264 38.4886 65.3373 38.4778 65.297C38.4106 65.0243 38.2911 64.7679 38.1263 64.5427C37.9614 64.3175 37.7545 64.128 37.5175 63.9852C37.2616 63.878 36.9858 63.8296 36.7096 63.8435C36.4334 63.8574 36.1636 63.9333 35.9193 64.0658C35.5892 64.2572 35.3204 64.5423 35.1453 64.8866C35.0227 65.1758 35.001 65.4992 35.0839 65.8028C35.1667 66.1063 35.3491 66.3715 35.6004 66.5539C35.6219 66.5759 35.6613 66.6272 35.6004 66.6455C35.2779 66.8251 35.2708 66.8654 35.0271 67.2355C34.9042 67.5006 34.8565 67.7957 34.8894 68.0872C34.9224 68.3787 35.0346 68.6549 35.2134 68.8844C35.3476 69.0875 35.5232 69.2587 35.728 69.3861C35.9328 69.5135 36.1621 69.5943 36.4002 69.6228C36.6383 69.6513 36.8797 69.627 37.1077 69.5514C37.3358 69.4758 37.5452 69.3508 37.7217 69.1849C37.7361 69.1739 37.7863 69.2032 37.8113 69.2581C37.946 69.4743 38.12 69.6621 38.3237 69.8114C38.5725 69.955 38.8533 70.0304 39.139 70.0304C39.4246 70.0304 39.7054 69.955 39.9542 69.8114C40.2144 69.6646 40.4254 69.441 40.5597 69.1697C40.6939 68.8985 40.7451 68.5922 40.7067 68.2908C40.7014 67.93 40.5587 67.5855 40.3089 67.3307C40.2623 67.2721 40.3089 67.2428 40.4308 67.1622C42.5962 65.8935 44.9811 65.0648 47.4541 64.7217C48.7342 64.5201 50.0388 64.5474 51.3097 64.8024C52.1387 64.9963 52.9111 65.388 53.5637 65.9456C54.0958 66.3854 54.5832 66.8789 55.0185 67.4187C55.1645 67.4432 55.3143 67.4105 55.4378 67.3271C55.5704 67.031 55.6432 66.7106 55.6519 66.3851C55.6605 66.0595 55.6047 65.7356 55.4879 65.4326C55.1915 64.6167 54.7215 63.8782 54.1119 63.2707C54.1012 63.2634 54.1012 63.2231 54.1012 63.1974C54.0868 63.0875 54.1549 63.0325 54.2875 62.9079C54.852 62.3683 55.5473 61.9925 56.3013 61.8196C56.3981 61.8123 56.4375 61.739 56.373 61.6254C56.1004 61.1169 55.6572 60.7262 55.1251 60.5256C54.593 60.3249 54.0079 60.3277 53.4777 60.5335C52.7796 60.8344 52.2013 61.3729 51.8472 62.0578C51.8257 62.0981 51.7684 62.241 51.7147 62.1971C51.3922 62.1677 50.8475 62.0798 50.5286 62.0505C50.3817 62.0431 50.439 61.9076 50.4426 61.8856C50.575 61.4458 50.8142 61.0475 51.1377 60.7277C51.5713 60.217 52.1163 59.8178 52.7287 59.5624C52.741 59.561 52.7528 59.5565 52.7629 59.5493C52.7731 59.5421 52.7814 59.5325 52.787 59.5213C52.7927 59.51 52.7956 59.4976 52.7954 59.4849C52.7953 59.4723 52.792 59.4599 52.7861 59.4488C52.5829 59.1956 52.3291 58.9897 52.0417 58.845C51.7543 58.7002 51.44 58.62 51.1198 58.6097C50.7121 58.5879 50.3044 58.6542 49.9234 58.8045C49.5424 58.9548 49.1967 59.1856 48.9089 59.4818C48.2233 60.2236 47.7984 61.1775 47.7013 62.1934C47.6691 62.2777 47.6297 62.3216 47.5688 62.3216C47.2392 62.3759 46.9063 62.4065 46.5726 62.4132C46.5188 62.3986 46.5224 62.34 46.5224 62.2813C46.5284 61.7634 46.6523 61.2541 46.8843 60.7936C47.3388 59.9123 48.0203 59.1748 48.8552 58.661C48.9842 58.5694 48.9913 58.3825 48.9483 58.3605C48.5456 58.1877 48.113 58.0992 47.6763 58.1004ZM7.38167 65.4839H32.7122V73.5087H12.7782C11.6135 72.1403 10.5385 70.6946 9.56033 69.1812C8.78988 67.9746 8.06199 66.7402 7.37808 65.4803L7.38167 65.4839ZM43.4873 69.7931C43.1442 69.7792 42.8045 69.867 42.5091 70.046C41.7036 70.4791 41.0935 71.2146 40.807 72.098C40.6392 72.7869 40.6541 73.5091 40.85 74.1903C40.8608 74.2159 40.893 74.2782 40.8428 74.3002C40.5633 74.4101 40.3555 74.5384 40.0796 74.652C40.0653 74.652 39.9936 74.6703 39.9793 74.6337C39.7469 74.2076 39.6522 73.7173 39.7088 73.2329C39.7655 72.7485 39.9705 72.2948 40.2946 71.9367C40.3555 71.8818 40.3913 71.8085 40.2659 71.7645C39.9162 71.7095 39.5586 71.7455 39.226 71.8691C38.8935 71.9927 38.5967 72.2 38.3632 72.4717C38.0946 72.8026 37.9148 73.1991 37.8413 73.6224C37.7678 74.0458 37.8032 74.4813 37.9439 74.8865C38.014 75.2218 38.1336 75.5443 38.2987 75.8429C38.3094 75.8612 38.4062 75.9198 38.3488 75.9455L37.8113 76.3669C37.8006 76.3779 37.7612 76.3962 37.7433 76.3669C37.6352 76.1583 37.4877 75.9739 37.3093 75.8241C37.1309 75.6744 36.9252 75.5625 36.7041 75.4948C36.5035 75.4462 36.2942 75.4503 36.0956 75.5066C35.897 75.563 35.7155 75.6699 35.5682 75.8172C35.4089 75.9779 35.293 76.178 35.2319 76.3981C35.1709 76.6182 35.1667 76.8507 35.2197 77.0729C35.2728 77.2952 35.3814 77.4996 35.5347 77.6661C35.6881 77.8326 35.8811 77.9557 36.0949 78.0231C36.12 78.0341 36.1558 78.0671 36.1128 78.0964C35.827 78.2943 35.5932 78.5611 35.432 78.8732C35.335 79.1245 35.3121 79.3994 35.3662 79.6638C35.4204 79.9282 35.5491 80.1706 35.7366 80.3609C35.8774 80.4873 36.0429 80.5817 36.222 80.6379C36.4011 80.6941 36.5898 80.7109 36.7757 80.6871C37.0536 80.594 37.3102 80.4444 37.53 80.2473C37.7498 80.0502 37.9284 79.8096 38.055 79.5401C38.0622 79.5292 38.1303 79.4779 38.1661 79.5182C38.3969 79.8593 38.7284 80.1161 39.1121 80.251C39.3082 80.3208 39.519 80.3355 39.7226 80.2936C39.9262 80.2517 40.115 80.1548 40.2695 80.0128C40.4801 79.8439 40.6322 79.6105 40.7038 79.3468C40.7754 79.0831 40.7626 78.8029 40.6673 78.5471C40.4941 78.227 40.2468 77.9552 39.947 77.7556C39.9004 77.719 39.9362 77.6274 40.0294 77.5541C41.4809 76.3606 43.2132 75.5772 45.0533 75.2822C46.3094 75.1119 47.5868 75.3234 48.7262 75.8905C49.1713 76.1576 49.5777 76.4869 49.9338 76.8689C49.9803 76.8945 50.1129 76.9422 50.1595 76.8982C50.4294 76.6445 50.5931 76.294 50.6165 75.9199C50.6398 75.5458 50.5211 75.1769 50.2849 74.8902C50.0816 74.6394 49.8304 74.4337 49.5468 74.2855C49.535 74.2691 49.5265 74.2504 49.5217 74.2306C49.7435 73.6575 50.117 73.1589 50.6003 72.7905C50.931 72.5736 51.2859 72.3977 51.6573 72.2665C51.7362 72.2445 51.7218 72.1932 51.6824 72.0943C51.2238 71.0207 49.407 70.9804 48.5506 71.5447C48.0275 71.9174 47.6018 72.4156 47.3108 72.9957C47.2928 73.0324 47.2677 73.1423 47.2212 73.1093L46.4579 72.8748C46.4436 72.8748 46.4436 72.7868 46.4507 72.7722C46.7037 72.2694 47.056 71.8258 47.4853 71.4694C47.9146 71.1131 48.4116 70.8517 48.9448 70.7019C48.9985 70.6799 48.9806 70.6286 48.9698 70.5993C48.5757 69.6172 46.6013 69.7015 45.6373 70.3281C44.7415 70.9356 44.1089 71.8726 43.8708 72.9444C43.86 73.0177 43.8923 73.08 43.8457 73.091C43.5779 73.1849 43.3019 73.2524 43.0215 73.2925C43.0006 73.2907 42.981 73.2812 42.9665 73.2657C42.9519 73.2501 42.9435 73.2297 42.9427 73.2082C42.872 72.7155 42.9561 72.2126 43.1828 71.7719C43.5043 71.2239 43.8947 70.7213 44.3438 70.2768C44.3586 70.2613 44.3702 70.2429 44.3777 70.2226C44.3853 70.2023 44.3887 70.1807 44.3877 70.159C44.3866 70.1373 44.3813 70.1161 44.3719 70.0966C44.3625 70.0772 44.3492 70.0599 44.333 70.046C44.0766 69.8893 43.7858 69.8048 43.4873 69.7931ZM32.7158 74.542V87.0629C32.3647 86.9457 31.949 86.7918 31.4903 86.6342C30.8525 86.4144 30.1538 86.0809 29.3511 85.7291C26.9231 84.6903 24.5753 83.4653 22.3278 82.0648C20.8925 81.1239 19.5194 80.0871 18.2177 78.9612C16.6092 77.5951 15.0936 76.1186 13.6812 74.542H32.7087H32.7158Z" fill="white"/>
</svg>
